<svg xmlns="http://www.w3.org/2000/svg" width="56.851" height="122.646" viewBox="0 0 56.851 122.646"><path fill="#F29F60" d="M22.692 85.737l.736 29.672 1.503-5.212 2.277 11.635 1.44-12.56 1.85 13.373 2.042-15.617 1.05 6.025.156-27.25-10.86-.008"/><path fill="#FCD3B2" d="M24.55 85.122l.47 18.913.953-3.322 1.454 7.414.916-8.004 1.18 8.52 1.302-9.95.67 3.84.097-17.367-6.917-.004"/><path d="M34.82 85.262c0 .53-.436.964-.97.963l-11.115-.04c-.533-.004-.966-.438-.962-.973 0-.532.435-.963.97-.963l11.115.04c.534.003.964.435.962.972z" fill="#AEB0B1"/><path d="M39.517 56.67l17.335 17.614-.064 17.34S52.01 76.56 39.446 76.515l.07-19.845zM17.525 56.592L.062 74.078 0 91.416s4.888-15.022 17.454-14.978l.07-19.846z" fill="#F29F60"/><path d="M28.736 15.44S11.322 21.94 11.26 39.3c-.065 17.357 8.538 45.663 8.538 45.663l17.44.064s8.833-28.24 8.896-45.642c.063-17.397-17.398-23.944-17.398-23.944z" fill="#fff"/><path d="M11.26 39.3c.06-17.358 17.476-23.858 17.476-23.858s17.46 6.547 17.398 23.944L11.26 39.3z" fill="#F29F60"/><path d="M25.544 16.985l6.397.013-2.31-1.248-.466-13.584c.367-.192.62-.578.616-1.02C29.776.51 29.26 0 28.626 0c-.634.005-1.146.52-1.143 1.155 0 .494.316.91.753 1.073l-.343 13.494-2.35 1.263z" fill="#75797A"/><path d="M39.664 76.52s3.45.025 6.397 1.58c1.134-4.597 2.67-12.066 2.67-12.066l-5.26-5.346s-3.06 14.07-3.806 15.83" opacity=".8" fill="#C2C3C3"/><path d="M46.074 39.448c.312-14.864-12.743-21.898-16.515-23.62l-.396-13.662.57-.695s.32-1.048-.93-1.454c.924.69-.204 1.85-.204 1.85L28.55 15.4l-.122 33.59s8.457.112 8.425 8.83c-.025 7.15-8.41 7.722-8.41 7.722l.086 19.453 8.707.033c.002 0 9.232-29.87 8.837-45.58z" opacity=".3" fill="#C9CAC9"/><path d="M36.436 57.255c.02 4.294-3.447 7.796-7.745 7.815-4.297.02-7.795-3.447-7.813-7.744-.022-4.297 3.446-7.796 7.744-7.815 4.297-.02 7.796 3.444 7.816 7.745z" fill="#66A9D1" stroke="#C2C3C3" stroke-miterlimit="10"/><path d="M30.007 51.547c2.663.574 4.18 3.194 4.362 5.74.046.658-.972.713-1.018.058-.153-2.088-1.347-4.322-3.56-4.8-.642-.136-.43-1.137.215-.998z" fill="#fff"/><path d="M25.416 50.882l6.145 12.95s-2.633 1.29-5.468.176c-2.835-1.113-3.793-3.335-4.14-4.14-.342-.802-1.013-3.25.385-6.007 1.203-2.17 3.08-2.978 3.08-2.978z" opacity=".1" fill="#75716F"/></svg>