<svg xmlns="http://www.w3.org/2000/svg" width="103.077" height="37.987" viewBox="0 0 103.077 37.987"><path d="M88.78 18.897c-1.366-.122-2.698-.125-3.977-.024-2.036-3.56-7.15-6.378-13.346-6.935-.166-.014-.33-.023-.497-.035-2.966-6-11.382-10.827-21.665-11.747-10.077-.904-19.058 2.2-23.166 7.387-.198-.02-.4-.04-.6-.057C12.204 6.29.79 12.11.04 20.48c-.75 8.37 9.446 16.125 22.775 17.318 6.163.553 11.915-.394 16.394-2.4 2.297 1.205 5.103 2.038 8.178 2.314 5.712.51 10.86-1.03 13.696-3.736 2.3 1.207 5.112 2.043 8.19 2.318 3.33.3 6.466-.103 9.065-1.023 2.395 1.37 5.41 2.322 8.738 2.62 8.352.748 15.504-2.896 15.974-8.14.47-5.246-5.92-10.105-14.27-10.853z" fill="#fff"/></svg>