<svg xmlns="http://www.w3.org/2000/svg" width="131.754" height="33.683" viewBox="0 0 131.754 33.683"><path d="M131.754 16.57c.012-6.198-11.458-11.244-25.617-11.267-3.9-.007-7.595.37-10.903 1.048C91.078 2.608 82.324.017 72.188 0c-10.77-.018-19.99 2.877-23.79 6.99-.615-.02-1.232-.034-1.86-.035-8.817-.015-16.6 1.924-21.217 4.885-1.876-.23-3.874-.357-5.952-.36C8.678 11.462.008 14.668 0 18.64c-.006 3.972 8.654 7.206 19.344 7.225 2.64.004 5.155-.19 7.448-.542 4.457 2.355 11.06 3.905 18.494 4.07 4.69 2.59 11.928 4.26 20.055 4.273 1.836.003 3.618-.087 5.343-.245 1.508.165 3.082.26 4.713.264 8.81.014 16.22-2.48 18.332-5.87 3.226 1.07 7.307 1.716 11.75 1.725 7.385.01 13.767-1.743 16.89-4.304 5.725-2.052 9.38-5.168 9.386-8.665z" fill="#fff"/></svg>